RBDS010runT45_grf
version=1
nRows=37
nColumns=19
inDegrees=no
endheader
time	ground_force_r_vx	ground_force_r_vy	ground_force_r_vz	ground_force_r_px	ground_force_r_py	ground_force_r_pz	ground_force_r_mx	ground_force_r_my	ground_force_r_mz	ground_force_l_vx	ground_force_l_vy	ground_force_l_vz	ground_force_l_px	ground_force_l_py	ground_force_l_pz	ground_force_l_mx	ground_force_l_my	ground_force_l_mz
     14.99900000	      0.00000000	      0.00000000	      0.00000000	      0.00000000	      0.00000000	      0.00000000	      0.00000000	      0.00000000	      0.00000000	   -177.67384278	   1473.44822014	    -44.11271634	      2.40106314	      0.00000000	      1.02021706	     -0.00000000	      2.53144366	     -0.00000000
     15.00000000	      0.00000000	      0.00000000	      0.00000000	      0.00000000	      0.00000000	      0.00000000	      0.00000000	      0.00000000	      0.00000000	   -174.56382129	   1486.71107188	    -44.41497071	      2.39691665	      0.00000000	      1.02017885	     -0.00000000	      2.56305936	     -0.00000000
     15.00100000	      0.00000000	      0.00000000	      0.00000000	      0.00000000	      0.00000000	      0.00000000	      0.00000000	      0.00000000	      0.00000000	   -170.68267031	   1498.98914205	    -44.67296651	      2.39269942	      0.00000000	      1.02009240	     -0.00000000	      2.58552857	     -0.00000000
     15.00200000	      0.00000000	      0.00000000	      0.00000000	      0.00000000	      0.00000000	      0.00000000	      0.00000000	      0.00000000	      0.00000000	   -166.80151934	   1511.26721223	    -44.93096231	      2.38848219	      0.00000000	      1.02000594	     -0.00000000	      2.60799779	     -0.00000000
     15.00300000	      0.00000000	      0.00000000	      0.00000000	      0.00000000	      0.00000000	      0.00000000	      0.00000000	      0.00000000	      0.00000000	   -162.92036837	   1523.54528241	    -45.18895810	      2.38426495	      0.00000000	      1.01991949	     -0.00000000	      2.63046700	     -0.00000000
     15.00400000	      0.00000000	      0.00000000	      0.00000000	      0.00000000	      0.00000000	      0.00000000	      0.00000000	      0.00000000	      0.00000000	   -158.52386456	   1535.13015539	    -45.42371355	      2.38000993	      0.00000000	      1.01981117	     -0.00000000	      2.64485938	     -0.00000000
     15.00500000	      0.00000000	      0.00000000	      0.00000000	      0.00000000	      0.00000000	      0.00000000	      0.00000000	      0.00000000	      0.00000000	   -153.86968433	   1546.36842978	    -45.64684883	      2.37573602	      0.00000000	      1.01969192	     -0.00000000	      2.65521334	     -0.00000000
     15.00600000	      0.00000000	      0.00000000	      0.00000000	      0.00000000	      0.00000000	      0.00000000	      0.00000000	      0.00000000	      0.00000000	   -149.21550411	   1557.60670417	    -45.86998411	      2.37146211	      0.00000000	      1.01957267	     -0.00000000	      2.66556730	     -0.00000000
     15.00700000	      0.00000000	      0.00000000	      0.00000000	      0.00000000	      0.00000000	      0.00000000	      0.00000000	      0.00000000	      0.00000000	   -144.30872092	   1568.47405349	    -46.08529760	      2.36717357	      0.00000000	      1.01944720	     -0.00000000	      2.67101856	     -0.00000000
     15.00800000	      0.00000000	      0.00000000	      0.00000000	      0.00000000	      0.00000000	      0.00000000	      0.00000000	      0.00000000	      0.00000000	   -138.89673181	   1578.59955264	    -46.28496750	      2.36285579	      0.00000000	      1.01930928	     -0.00000000	      2.66666443	     -0.00000000
     15.00900000	      0.00000000	      0.00000000	      0.00000000	      0.00000000	      0.00000000	      0.00000000	      0.00000000	      0.00000000	      0.00000000	   -133.48474269	   1588.72505179	    -46.48463740	      2.35853800	      0.00000000	      1.01917137	     -0.00000000	      2.66231029	     -0.00000000
     15.01000000	      0.00000000	      0.00000000	      0.00000000	      0.00000000	      0.00000000	      0.00000000	      0.00000000	      0.00000000	      0.00000000	   -128.07275358	   1598.85055093	    -46.68430731	      2.35422021	      0.00000000	      1.01903345	     -0.00000000	      2.65795616	     -0.00000000
     15.01100000	      0.00000000	      0.00000000	      0.00000000	      0.00000000	      0.00000000	      0.00000000	      0.00000000	      0.00000000	      0.00000000	   -121.93604282	   1607.77449335	    -46.87254793	      2.34986984	      0.00000000	      1.01888936	     -0.00000000	      2.63701096	     -0.00000000
     15.01200000	      0.00000000	      0.00000000	      0.00000000	      0.00000000	      0.00000000	      0.00000000	      0.00000000	      0.00000000	      0.00000000	   -115.79933206	   1616.69843577	    -47.06078856	      2.34551946	      0.00000000	      1.01874526	     -0.00000000	      2.61606576	     -0.00000000
     15.01300000	      0.00000000	      0.00000000	      0.00000000	      0.00000000	      0.00000000	      0.00000000	      0.00000000	      0.00000000	      0.00000000	   -109.66262130	   1625.62237819	    -47.24902918	      2.34116908	      0.00000000	      1.01860116	     -0.00000000	      2.59512056	     -0.00000000
     15.01400000	      0.00000000	      0.00000000	      0.00000000	      0.00000000	      0.00000000	      0.00000000	      0.00000000	      0.00000000	      0.00000000	   -103.07687083	   1633.67745717	    -47.43724057	      2.33680338	      0.00000000	      1.01845999	     -0.00000000	      2.56251599	     -0.00000000
     15.01500000	      0.00000000	      0.00000000	      0.00000000	      0.00000000	      0.00000000	      0.00000000	      0.00000000	      0.00000000	      0.00000000	    -96.26660052	   1641.29810443	    -47.62543733	      2.33243002	      0.00000000	      1.01832028	     -0.00000000	      2.52408174	     -0.00000000
     15.01600000	      0.00000000	      0.00000000	      0.00000000	      0.00000000	      0.00000000	      0.00000000	      0.00000000	      0.00000000	      0.00000000	    -89.45633021	   1648.91875169	    -47.81363410	      2.32805665	      0.00000000	      1.01818057	     -0.00000000	      2.48564749	     -0.00000000
     15.01700000	      0.00000000	      0.00000000	      0.00000000	      0.00000000	      0.00000000	      0.00000000	      0.00000000	      0.00000000	      0.00000000	    -82.44450236	   1656.06786463	    -48.00501743	      2.32367825	      0.00000000	      1.01804514	     -0.00000000	      2.44147729	     -0.00000000
     15.01800000	      0.00000000	      0.00000000	      0.00000000	      0.00000000	      0.00000000	      0.00000000	      0.00000000	      0.00000000	      0.00000000	    -75.02955943	   1662.27390891	    -48.20277391	      2.31928976	      0.00000000	      1.01791831	     -0.00000000	      2.38583520	     -0.00000000
     15.01900000	      0.00000000	      0.00000000	      0.00000000	      0.00000000	      0.00000000	      0.00000000	      0.00000000	      0.00000000	      0.00000000	    -67.61461650	   1668.47995318	    -48.40053038	      2.31490127	      0.00000000	      1.01779147	     -0.00000000	      2.33019311	     -0.00000000
     15.02000000	      0.00000000	      0.00000000	      0.00000000	      0.00000000	      0.00000000	      0.00000000	      0.00000000	      0.00000000	      0.00000000	    -60.19967356	   1674.68599746	    -48.59828686	      2.31051278	      0.00000000	      1.01766463	     -0.00000000	      2.27455102	     -0.00000000
     15.02100000	      0.00000000	      0.00000000	      0.00000000	      0.00000000	      0.00000000	      0.00000000	      0.00000000	      0.00000000	      0.00000000	    -52.26576262	   1679.36036763	    -48.81252831	      2.30611531	      0.00000000	      1.01755700	     -0.00000000	      2.20326125	     -0.00000000
     15.02200000	      0.00000000	      0.00000000	      0.00000000	      0.00000000	      0.00000000	      0.00000000	      0.00000000	      0.00000000	      0.00000000	    -44.33185168	   1684.03473780	    -49.02676976	      2.30171784	      0.00000000	      1.01744938	     -0.00000000	      2.13197148	     -0.00000000
     15.02300000	      0.00000000	      0.00000000	      0.00000000	      0.00000000	      0.00000000	      0.00000000	      0.00000000	      0.00000000	      0.00000000	    -36.39794073	   1688.70910796	    -49.24101121	      2.29732037	      0.00000000	      1.01734175	     -0.00000000	      2.06068170	     -0.00000000
     15.02400000	      0.00000000	      0.00000000	      0.00000000	      0.00000000	      0.00000000	      0.00000000	      0.00000000	      0.00000000	      0.00000000	    -28.18543825	   1692.28321305	    -49.46866570	      2.29291993	      0.00000000	      1.01724973	     -0.00000000	      1.98085274	     -0.00000000
     15.02500000	      0.00000000	      0.00000000	      0.00000000	      0.00000000	      0.00000000	      0.00000000	      0.00000000	      0.00000000	      0.00000000	    -19.83363999	   1695.30718559	    -49.70302671	      2.28851800	      0.00000000	      1.01716551	     -0.00000000	      1.89675419	     -0.00000000
     15.02600000	      0.00000000	      0.00000000	      0.00000000	      0.00000000	      0.00000000	      0.00000000	      0.00000000	      0.00000000	      0.00000000	    -11.48184173	   1698.33115813	    -49.93738772	      2.28411607	      0.00000000	      1.01708129	     -0.00000000	      1.81265563	     -0.00000000
     15.02700000	      0.00000000	      0.00000000	      0.00000000	      0.00000000	      0.00000000	      0.00000000	      0.00000000	      0.00000000	      0.00000000	     -3.02892297	   1700.76630893	    -50.17846849	      2.27971368	      0.00000000	      1.01700558	     -0.00000000	      1.72562725	     -0.00000000
     15.02800000	      0.00000000	      0.00000000	      0.00000000	      0.00000000	      0.00000000	      0.00000000	      0.00000000	      0.00000000	      0.00000000	      5.62623682	   1702.02381623	    -50.43298878	      2.27531037	      0.00000000	      1.01694691	     -0.00000000	      1.63273923	     -0.00000000
     15.02900000	      0.00000000	      0.00000000	      0.00000000	      0.00000000	      0.00000000	      0.00000000	      0.00000000	      0.00000000	      0.00000000	     14.28139661	   1703.28132354	    -50.68750908	      2.27090706	      0.00000000	      1.01688824	     -0.00000000	      1.53985121	     -0.00000000
     15.03000000	      0.00000000	      0.00000000	      0.00000000	      0.00000000	      0.00000000	      0.00000000	      0.00000000	      0.00000000	      0.00000000	     22.93655640	   1704.53883085	    -50.94202937	      2.26650375	      0.00000000	      1.01682956	     -0.00000000	      1.44696319	     -0.00000000
     15.03100000	      0.00000000	      0.00000000	      0.00000000	      0.00000000	      0.00000000	      0.00000000	      0.00000000	      0.00000000	      0.00000000	     31.76946296	   1703.92086409	    -51.21315756	      2.26210093	      0.00000000	      1.01679668	     -0.00000000	      1.35029730	     -0.00000000
     15.03200000	      0.00000000	      0.00000000	      0.00000000	      0.00000000	      0.00000000	      0.00000000	      0.00000000	      0.00000000	      0.00000000	     40.60236952	   1703.30289732	    -51.48428574	      2.25769810	      0.00000000	      1.01676379	     -0.00000000	      1.25363141	     -0.00000000
     15.03300000	      0.00000000	      0.00000000	      0.00000000	      0.00000000	      0.00000000	      0.00000000	      0.00000000	      0.00000000	      0.00000000	     49.43527607	   1702.68493055	    -51.75541393	      2.25329527	      0.00000000	      1.01673090	     -0.00000000	      1.15696552	     -0.00000000
     15.03400000	      0.00000000	      0.00000000	      0.00000000	      0.00000000	      0.00000000	      0.00000000	      0.00000000	      0.00000000	      0.00000000	     58.29734837	   1700.75161292	    -52.03304451	      2.24889338	      0.00000000	      1.01671422	     -0.00000000	      1.06160828	     -0.00000000
     15.03500000	      0.00000000	      0.00000000	      0.00000000	      0.00000000	      0.00000000	      0.00000000	      0.00000000	      0.00000000	      0.00000000	     67.17400354	   1698.16061985	    -52.31392629	      2.24449195	      0.00000000	      1.01670566	     -0.00000000	      0.96690536	     -0.00000000
